<svg width="344" height="596" viewBox="0 0 344 596" fill="none" xmlns="http://www.w3.org/2000/svg">
<path d="M0 20C0 8.95433 8.9543 0 20 0H323C334.046 0 343 8.9543 343 20V576C343 587.046 334.046 596 323 596H20C8.9543 596 0 587.046 0 576V496.509V480.478V469.161V20Z" fill="white"/>
<path d="M17.5 462H328.5" stroke="#675E5E" stroke-opacity="0.5" stroke-dasharray="6 6"/>
<path d="M326 461.5C326 471.165 333.835 479 343.5 479V444C333.835 444 326 451.835 326 461.5Z" fill="#E5D8FF"/>
<path d="M17.5 461.5C17.5 471.165 9.66498 479 0 479V444C9.66498 444 17.5 451.835 17.5 461.5Z" fill="#D1D0FE"/>
</svg>
